<?xml version="1.0"?>
<svg xmlns:rdf="http://www.w3.org/1999/02/22-rdf-syntax-ns#" xmlns="http://www.w3.org/2000/svg" xmlns:cc="http://creativecommons.org/ns#" xmlns:xlink="http://www.w3.org/1999/xlink" xmlns:dc="http://purl.org/dc/elements/1.1/" xmlns:svg="http://www.w3.org/2000/svg" id="svg2" viewBox="0 0 399.23 399.06" version="1.1">
  <defs id="defs4">
    <linearGradient id="linearGradient4488" x1="861.26" gradientUnits="userSpaceOnUse" y1="186.16" gradientTransform="matrix(.48968 0 0 .27408 -191.04 274.73)" x2="939.04" y2="186.16">
      <stop id="stop3903-4" stop-color="#808000" stop-opacity=".54962" offset="0"/>
      <stop id="stop3905-0" stop-color="#959700" stop-opacity=".54962" offset=".33636"/>
      <stop id="stop3899-9" stop-color="#595900" stop-opacity=".54962" offset="1"/>
    </linearGradient>
    <radialGradient id="radialGradient4490" gradientUnits="userSpaceOnUse" cy="-9.2813" cx="409.92" gradientTransform="matrix(.54676 .0054415 -.0019844 .19939 25.846 306.82)" r="67.141">
      <stop id="stop3851" stop-color="#006000" offset="0"/>
      <stop id="stop3866" stop-color="#006000" offset=".53513"/>
      <stop id="stop3864" stop-color="#008000" offset=".56255"/>
      <stop id="stop3857" stop-color="#00a200" offset=".73112"/>
      <stop id="stop3853" stop-color="#060" offset="1"/>
    </radialGradient>
    <radialGradient id="radialGradient4492" fx="331.03" fy="460.45" gradientUnits="userSpaceOnUse" cy="462.68" cx="297.34" gradientTransform="matrix(-1.6846 -.047867 .29911 -10.527 516.49 5217)" r="50.609">
      <stop id="stop3890" stop-color="#fff" stop-opacity=".41985" offset="0"/>
      <stop id="stop3892" stop-color="#fff" stop-opacity="0" offset="1"/>
    </radialGradient>
    <linearGradient id="linearGradient4494" x1="861.26" gradientUnits="userSpaceOnUse" y1="186.16" gradientTransform="matrix(.48968 0 0 .27408 -190.63 241.08)" x2="939.04" y2="186.16">
      <stop id="stop3903" stop-color="#808000" offset="0"/>
      <stop id="stop3905" stop-color="#959700" offset=".33636"/>
      <stop id="stop3899" stop-color="#595900" offset="1"/>
    </linearGradient>
    <radialGradient id="radialGradient4496" fx="417.89" fy="-13.403" gradientUnits="userSpaceOnUse" cy="25.242" cx="417.2" gradientTransform="matrix(.32263 0 0 .10863 115.6 272.93)" r="59">
      <stop id="stop4165" stop-color="#7a7a00" offset="0"/>
      <stop id="stop4167" stop-color="#757500" offset=".88692"/>
      <stop id="stop4169" stop-color="#727200" offset=".93469"/>
      <stop id="stop4171" stop-color="#8a8a00" offset="1"/>
    </radialGradient>
    <radialGradient id="radialGradient4498" fx="525.34" fy="620.53" gradientUnits="userSpaceOnUse" cy="838.21" cx="524.96" gradientTransform="matrix(.99989 -.0091114 .0046959 .18668 -3.876 697.66)" r="266.68">
      <stop id="stop3848" stop-color="#008100" offset="0"/>
      <stop id="stop3854" stop-color="#005d00" offset=".20624"/>
      <stop id="stop3858" stop-color="#006a00" offset=".8532"/>
      <stop id="stop3850" stop-color="#004300" offset="1"/>
    </radialGradient>
    <linearGradient id="linearGradient4500" x1="323.59" gradientUnits="userSpaceOnUse" y1="495.04" gradientTransform="translate(-45.962 43.841)" x2="411.83" y2="495.04">
      <stop id="stop5647" stop-color="#005600" offset="0"/>
      <stop id="stop5649" stop-color="#005600" stop-opacity="0" offset="1"/>
    </linearGradient>
    <linearGradient id="linearGradient4502" x1="300.02" gradientUnits="userSpaceOnUse" y1="522.48" gradientTransform="matrix(.54393 0 0 .51272 26.124 303.63)" x2="499.29" y2="478.48">
      <stop id="stop3941" stop-color="#00a02a" offset="0"/>
      <stop id="stop3943" stop-color="#00731e" offset="1"/>
    </linearGradient>
    <linearGradient id="linearGradient4504" x1="268.71" gradientUnits="userSpaceOnUse" y1="648.26" gradientTransform="matrix(.51272 0 0 .51272 122.46 263.59)" x2="406.71" y2="648.26">
      <stop id="stop5655" stop-color="#ccc" offset="0"/>
      <stop id="stop5657" stop-color="#929292" offset="1"/>
    </linearGradient>
    <linearGradient id="linearGradient4506" x1="290.83" gradientUnits="userSpaceOnUse" y1="755.74" gradientTransform="matrix(.51272 0 0 .51272 110.86 208.48)" x2="429.83" y2="755.74">
      <stop id="stop5697" stop-color="#4d4d4d" offset="0"/>
      <stop id="stop5699" stop-color="#4d4d4d" stop-opacity="0" offset="1"/>
    </linearGradient>
  </defs>
  <g id="layer1" transform="translate(-65.861 -333.38)">
    <g id="g4407" transform="matrix(.70711 -.70711 .70711 .70711 -292.56 328.71)">
      <path id="rect3052" fill="#008000" d="m221.99 316.25c0.35932 22.339 0.38478 46.184 0.048 68.24-23.836 7.5518-44.681 25.067-50.84 49.894-2.8942 14.821-0.88714 30.048-1.4741 45.072v256.14c0 16.018 36.05 29.001 80.53 29.001s80.546-12.982 80.546-29.001c0-0.12782-0.0114-0.25713-0.016-0.38454v-287.41c-1.3247-9.0172-2.9756-20.641-8.6042-29.257-9.5565-16.539-25.7-27.954-43.694-33.76-0.0623-22.543 0.16023-45.731 0.16023-68.529z"/>
      <path id="rect3122-8" fill="url(#linearGradient4488)" d="m230.69 310.44c-0.0281 10.126 0.0721 20.356-0.0459 30.443 0 3.5396 8.514 6.409 19.021 6.409 10.335 0 18.832-2.7814 19.105-6.2408 0.009-9.967 0.008-20.465 0.008-30.611z"/>
      <path id="path3860" fill="url(#radialGradient4490)" d="m250.25 295.62c-19.01 0-34.417 6.8297-34.417 15.24 0 0.007-0.00002 0.0142 0 0.0214h-0.016v11.275h0.032c0.18162 8.3416 15.504 15.09 34.401 15.09 19.01 0 34.417-6.8297 34.417-15.24 0-0.26282-0.0184-0.5121-0.048-0.77166v-9.6029c0.0297-0.25956 0.048-0.50883 0.048-0.77166 0-8.4106-15.407-15.24-34.417-15.24z"/>
      <path id="rect3817" transform="matrix(.51272 0 0 .51272 145.66 241.83)" fill="#050" d="m54.87 627.05v329.75c-0.30805 1.3884-0.46875 2.8024-0.46875 4.2188 0 29.309 67.204 53.063 150.09 53.063 80.813 0 146.72-22.583 149.97-50.875h0.40625v-334.69c-0.0442 0.35267-0.113 0.71207-0.1875 1.0625-0.0753 0.3543-0.17536 0.7106-0.28125 1.0625-0.10551 0.35039-0.2083 0.68333-0.34375 1.0312-0.0169 0.0435-0.0451 0.0815-0.0625 0.125-0.12564 0.31475-0.25639 0.62487-0.40625 0.9375-0.1635 0.34107-0.33926 0.69281-0.53125 1.0312-0.18998 0.33491-0.40747 0.66776-0.625 1-0.22773 0.34781-0.46121 0.68647-0.71875 1.0312-0.75454 1.0109-1.6209 2.017-2.625 3-0.11929 0.11677-0.25226 0.22739-0.375 0.34375-0.22248 0.21099-0.45377 0.4154-0.6875 0.625-0.36325 0.32564-0.73491 0.64655-1.125 0.96875-0.38405 0.31721-0.77779 0.62373-1.1875 0.9375-0.41458 0.31743-0.84077 0.65494-1.2812 0.96875-0.0788 0.0561-0.17038 0.10023-0.25 0.15625-0.36625 0.25773-0.74149 0.52605-1.125 0.78125-1.3918 0.92549-2.9185 1.8284-4.5312 2.7188-0.81979 0.45261-1.6563 0.90075-2.5312 1.3438-0.74171 0.3758-1.5007 0.75634-2.2812 1.125-0.26868 0.1269-0.53928 0.24896-0.8125 0.375-1.0565 0.48735-2.1581 0.9634-3.2812 1.4375-0.69201 0.2921-1.377 0.58809-2.0938 0.875-0.28909 0.11573-0.58193 0.22888-0.875 0.34375-0.99866 0.39143-2.0184 0.775-3.0625 1.1562-0.0858 0.0313-0.16389 0.0625-0.25 0.0937-0.10534 0.0382-0.20671 0.0869-0.3125 0.125-1.3499 0.48672-2.7339 0.93697-4.1562 1.4062-1.2865 0.42444-2.5936 0.84035-3.9375 1.25-0.26445 0.0807-0.51461 0.16992-0.78125 0.25-0.53709 0.16126-1.0791 0.30988-1.625 0.46875-1.0967 0.31942-2.181 0.62794-3.3125 0.9375-0.43296 0.11844-0.87453 0.22678-1.3125 0.34375-1.2721 0.33986-2.5302 0.67275-3.8438 1-0.16573 0.0413-0.33362 0.0839-0.5 0.125-1.6086 0.39731-3.2383 0.77836-4.9062 1.1562-1.8342 0.4156-3.6906 0.82742-5.5938 1.2188-0.93098 0.19139-1.8655 0.37706-2.8125 0.5625-0.54043 0.1059-1.0794 0.20856-1.625 0.3125-1.5922 0.30333-3.209 0.58871-4.8438 0.875-0.84646 0.14824-1.6737 0.29392-2.5312 0.4375-0.48629 0.0814-0.97895 0.17011-1.4688 0.25-1.5604 0.25461-3.1236 0.51101-4.7188 0.75-1.6735 0.25064-3.3522 0.4857-5.0625 0.71875-2.1894 0.29864-4.4093 0.57475-6.6562 0.84375-2.2448 0.26873-4.5134 0.51174-6.8125 0.75-1.2606 0.13063-2.5364 0.25374-3.8125 0.375-1.3594 0.12909-2.7173 0.25671-4.0938 0.375-2.3039 0.1981-4.6506 0.39533-7 0.5625-4.5366 0.3228-9.1536 0.57835-13.844 0.78125-0.16763 0.007-0.33219 0.0242-0.5 0.0312-1.2014 0.0507-2.4145 0.0824-3.625 0.125-3.6906 0.13015-7.3874 0.22838-11.156 0.28125-2.506 0.0352-5.0256 0.0625-7.5625 0.0625-12.936 0-25.494-0.47324-37.469-1.3438-0.0104-0.00076-0.0208 0.00076-0.0312 0-2.3968-0.17439-4.7448-0.3559-7.0938-0.5625-4.4569-0.39185-8.7944-0.87178-13.062-1.375-0.22654-0.0267-0.46152-0.0355-0.6875-0.0625-0.0104-0.001-0.0209 0.001-0.0312 0-2.2333-0.26712-4.4485-0.54735-6.625-0.84375-0.0103-0.001-0.0209 0.001-0.0312 0-2.176-0.2965-4.3215-0.61261-6.4375-0.9375-0.0103-0.002-0.0209 0.002-0.0312 0-0.33801-0.0519-0.66357-0.10361-1-0.15625-3.2388-0.50671-6.3821-1.0541-9.4688-1.625-0.6109-0.11296-1.2391-0.22835-1.8438-0.34375-0.0203-0.004-0.0422 0.004-0.0625 0-0.65696-0.12551-1.288-0.24664-1.9375-0.375-2.5674-0.50748-5.0848-1.043-7.5312-1.5938-0.67287-0.15148-1.3679-0.31409-2.0312-0.46875-0.0201-0.005-0.0424 0.005-0.0625 0-0.89487-0.20884-1.7477-0.4417-2.625-0.65625-0.94011-0.22997-1.893-0.4511-2.8125-0.6875-1.7537-0.45074-3.4799-0.90151-5.1563-1.375-0.0225-0.006-0.04-0.0249-0.0625-0.0312-3.3684-0.95279-6.5564-1.9293-9.5938-2.9688-0.0223-0.008-0.0402-0.0236-0.0625-0.0312-0.41724-0.14297-0.80804-0.29297-1.2188-0.4375-2.2856-0.80434-4.4855-1.6491-6.5625-2.5-0.28651-0.11738-0.59258-0.22552-0.875-0.34375-1.326-0.55505-2.6097-1.1142-3.8438-1.6875-0.0217-0.0101-0.0408-0.0212-0.0625-0.0312-1.2399-0.57707-2.4187-1.1553-3.5625-1.75-0.013-0.007-0.0183-0.0245-0.0312-0.0312-1.1421-0.5945-2.2387-1.1702-3.2815-1.7814-0.0126-0.007-0.0186-0.0239-0.0312-0.0312-0.50659-0.29731-1.0174-0.60514-1.5-0.90625-0.02-0.0125-0.0425-0.0188-0.0625-0.0312-0.21753-0.13606-0.41242-0.26943-0.625-0.40625-0.2731-0.17569-0.54761-0.35432-0.8125-0.53125-0.45526-0.30438-0.91307-0.62953-1.3438-0.9375-0.0189-0.0135-0.0436-0.0177-0.0625-0.0312-0.28575-0.20493-0.53775-0.41853-0.8125-0.625-0.154-0.11565-0.31822-0.22762-0.46875-0.34375-0.40881-0.31574-0.80465-0.6183-1.1875-0.9375-0.0114-0.009-0.0199-0.0218-0.0312-0.0312-0.38185-0.3191-0.76945-0.6463-1.125-0.96875-0.0113-0.0102-0.02-0.021-0.0312-0.0312-0.34854-0.31689-0.6772-0.64872-1-0.96875-0.0159-0.0157-0.0467-0.0155-0.0625-0.0312-0.32632-0.32492-0.63806-0.64071-0.9375-0.96875-0.0101-0.011-0.0212-0.0202-0.0312-0.0312-0.2983-0.32786-0.57265-0.66912-0.84375-1-0.009-0.0116-0.0218-0.0197-0.0312-0.0312-0.26982-0.33054-0.50767-0.66655-0.75-1-0.009-0.0119-0.0226-0.0193-0.0312-0.0312-0.24117-0.33328-0.47415-0.66392-0.6875-1-0.008-0.0121-0.0236-0.0192-0.0312-0.0312-0.0911-0.14416-0.1641-0.29284-0.25-0.4375-0.12072-0.20265-0.23322-0.42138-0.34375-0.625-0.38614-0.71136-0.70919-1.4025-0.96875-2.125-0.12464-0.34707-0.24888-0.68176-0.34375-1.0312-0.003-0.01 0.003-0.0213 0-0.0312-0.19204-0.7075-0.30718-1.4082-0.375-2.125-0.002-0.0207 0.002-0.0418 0-0.0625-0.0307-0.34317-0.0607-0.6861-0.0625-1.0312h-0.0312z"/>
      <path id="rect4610" fill-opacity=".47556" fill="#004f00" transform="matrix(.51272 0 0 .80745 62.276 193.35)" d="m311.85 237.18c-2.5505 24.048 115.35 17.492 109.88 0.2245 30.464 26.302-151.56 24.849-109.88-0.2245z"/>
      <path id="rect3886" transform="matrix(.51272 0 0 .51272 145.66 241.83)" fill="url(#radialGradient4492)" d="m166.93 143.89c-2.4696 1.1647-3.479 1.258-4.5625 4.75l-0.875 29.811c1.0089 1.5887 3.4094 1.9498 7.25 3.6268-0.175 31.398-0.0625 76.293-0.0625 111.91l-0.375-0.0625c-32.489 24.768-79.14 34.608-87.031 106.28 0.18681 203.43 0.2807 376.85 0.40625 580.28 6.7917 5.6471 18.833 10.914 30.125 13.5 0-203.43 0.5-390.35 0.5-593.78 0.41963-56.859 41.121-75.928 69.094-105.03 2.4638-24.09 1.3125-76.86 1.3125-110.5-3.7702-1.1188-9.0123-0.84273-10.944-3.2487l0.69411-28.501c-0.8527-4.2118 2.8021-5.3138 3.7188-6.5312z"/>
      <path id="rect3122" d="m231.1 276.79c-0.0281 10.126 0.0721 20.356-0.0459 30.443 0 3.5396 8.514 6.409 19.021 6.409 10.335 0 18.896-2.7814 19.169-6.2408 0.009-9.967-0.0565-20.465-0.0565-30.611z" fill="url(#linearGradient4494)"/>
      <path id="path2998-4" d="m269.18 276.83a19.035 6.409 0 0 1 -38.071 0 19.035 6.409 0 1 1 38.071 0z" fill="url(#radialGradient4496)"/>
      <path id="path3822" transform="matrix(.28856 0 0 .481 99.521 324.59)" fill="url(#radialGradient4498)" d="m789.94 852.35a266.68 56.569 0 1 1 -533.36 0 266.68 56.569 0 1 1 533.36 0z"/>
      <path id="rect5099" transform="matrix(.51272 0 0 .51272 145.66 241.83)" fill="url(#linearGradient4500)" d="m282.75 501.91v73.938c20.243-3.3186 40.697-7.5531 59.249-16.613 7.1771-3.7848 15.049-8.4145 18.189-16.324 1.8248-5.5598-0.67478-11.578-4.9118-15.343-8.9113-8.3677-20.672-12.713-32.071-16.533-13.202-4.1595-26.79-6.9903-40.455-9.1247z"/>
      <path id="path3879" fill="url(#linearGradient4502)" d="m327.66 563.31a76.923 21.753 0 1 1 -153.85 0 76.923 21.753 0 1 1 153.85 0z"/>
      <path id="path5616" stroke="url(#linearGradient4506)" stroke-width=".51272" fill="url(#linearGradient4504)" d="m331 517.88c-3.7848 6.123-9.6955 10.404-16.625 13.438l-1.5312 26.062-6.4062-18.594-7.875 44.281-6.4062-7.125-5 10.719-13.844-48.125c-4.8407 0.16467-9.317 0.24262-13.094 0.3125v135.22c5.348-0.84748 14.922-1.2425 25.344-2.2188l3.7188-16.281 10.719 12.5 2.1562-9.625 6.5938 9.875c13.54-3.26 23.91-8.99 22.24-19.82v-130.62z"/>
      <path id="path5813" stroke="url(#linearGradient4506)" stroke-width=".51272" fill="none" d="m330.41 526.53-0.1875 0.125c-4.6306 3.6254-10.141 6.4651-16.062 8.6875l-1.3125 22.031-6.4062-18.594-7.875 44.281-6.4062-7.125-5 10.719-12.66-44.04c-3.3885 0.1244-6.7973 0.18675-10.188 0.25v126.56c6.9857-0.76866 14.606-1.4361 22.312-2.375l2.6562-11.5 8.5 9.9062c0.97291-0.16851 1.9397-0.34553 2.9062-0.53125l1.4688-6.5 3.625 5.4062c7.0473-1.6367 13.801-3.838 19.781-7 3.9611-2.4347 6.0573-7.2176 5-11.75-0.25093-39.522 0.0292-79.04-0.15625-118.56z"/>
    </g>
  </g>
  <metadata>
    <rdf:RDF>
      <cc:Work>
        <dc:format>image/svg+xml</dc:format>
        <dc:type rdf:resource="http://purl.org/dc/dcmitype/StillImage"/>
        <cc:license rdf:resource="http://creativecommons.org/licenses/publicdomain/"/>
        <dc:publisher>
          <cc:Agent rdf:about="http://openclipart.org/">
            <dc:title>Openclipart</dc:title>
          </cc:Agent>
        </dc:publisher>
        <dc:title>Old bottle</dc:title>
        <dc:date>2013-07-05T12:52:00</dc:date>
        <dc:description>An older version of jarda's good looking bottle</dc:description>
        <dc:source>http://openclipart.org/detail/180023/old-bottle-by-qubodup-180023</dc:source>
        <dc:creator>
          <cc:Agent>
            <dc:title>qubodup</dc:title>
          </cc:Agent>
        </dc:creator>
        <dc:subject>
          <rdf:Bag>
            <rdf:li>bottle</rdf:li>
            <rdf:li>clip art</rdf:li>
            <rdf:li>clipart</rdf:li>
            <rdf:li>label</rdf:li>
            <rdf:li>old</rdf:li>
            <rdf:li>torn</rdf:li>
            <rdf:li>wine</rdf:li>
          </rdf:Bag>
        </dc:subject>
      </cc:Work>
      <cc:License rdf:about="http://creativecommons.org/licenses/publicdomain/">
        <cc:permits rdf:resource="http://creativecommons.org/ns#Reproduction"/>
        <cc:permits rdf:resource="http://creativecommons.org/ns#Distribution"/>
        <cc:permits rdf:resource="http://creativecommons.org/ns#DerivativeWorks"/>
      </cc:License>
    </rdf:RDF>
  </metadata>
</svg>
